<svg height="800" width="800" version="1.1" id="图层_1" xmlns="http://www.w3.org/2000/svg" viewBox="0 0 40 40" xml:space="preserve"><path fill="#231815" d="M20 23.5c-.3 0-.5-.2-.5-.5v-3c0-.3.2-.5.5-.5s.5.2.5.5v3c0 .3-.2.5-.5.5zM20 17.5c-.1 0-.3-.1-.4-.1-.1-.1-.1-.2-.1-.4 0-.1 0-.3.1-.4.2-.2.5-.2.7 0 .1.1.2.2.2.4 0 .1-.1.3-.1.3-.1.1-.3.2-.4.2z"/><path fill="#231815" d="M25.3 27.5H14.8c-1.2 0-2.3-1-2.3-2.3V14.8c0-1.2 1-2.3 2.3-2.3h10.5c1.2 0 2.3 1 2.3 2.3v10.5c-.1 1.2-1.1 2.2-2.3 2.2zm-10.5-14c-.7 0-1.3.6-1.3 1.3v10.5c0 .7.6 1.3 1.3 1.3h10.5c.7 0 1.3-.6 1.3-1.3V14.8c0-.7-.6-1.3-1.3-1.3H14.8z"/></svg>